<svg width="48" height="48" viewBox="0 0 48 48" fill="none" xmlns="http://www.w3.org/2000/svg">
<path d="M48 0H46.5938C44.2988 0 42.2567 1.1033 40.9725 2.805H40.9688C38.6707 2.805 36.6273 3.91017 35.3438 5.61468V5.61C31.4662 5.61 28.3125 8.75609 28.3125 12.6225V19.3683L24 23.6099L19.6875 19.3683V12.6225C19.6875 8.75609 16.5338 5.61 12.6562 5.61V5.61468C11.3727 3.91017 9.32925 2.805 7.03125 2.805H7.0275C5.74341 1.1033 3.70125 0 1.40625 0H0V22.0306L9.96384 33.847H8.4375V47.872H39.5625V33.847H38.0362L48 22.0306V0ZM16.875 12.6225V16.873C16.017 16.3567 15.0579 16.0298 14.0625 15.9146V9.8175C14.0625 9.40984 14.0252 9.00966 13.9584 8.6207C15.649 9.16955 16.875 10.7553 16.875 12.6225ZM8.4375 5.8503C10.0744 6.42925 11.25 7.98873 11.25 9.8175V16.1492C10.5805 16.3448 9.94408 16.6392 9.36188 17.0225L8.4375 16.1016V5.8503ZM22.5938 45.067H11.25V36.652H22.5938V45.067ZM22.5938 33.847H13.6388L2.8125 21.0086V3.04539C4.44938 3.62406 5.625 5.18364 5.625 7.0125V17.2638L14.4741 26.0894L16.4634 24.1063L11.4196 19.0759C11.9802 18.8073 12.598 18.6663 13.2385 18.6663C14.3654 18.6663 15.4248 19.1039 16.2217 19.8987L22.5938 26.1662V33.847ZM36.75 9.8175C36.75 7.98873 37.9256 6.42925 39.5625 5.8503V16.1016L38.6381 17.0225C38.0559 16.6392 37.4195 16.3448 36.75 16.1492V9.8175ZM31.125 12.6225C31.125 10.7554 32.3511 9.16955 34.0416 8.6207C33.9731 9.01599 33.9382 9.41635 33.9375 9.8175V15.9146C32.9421 16.0298 31.983 16.3567 31.125 16.873V12.6225ZM36.75 45.067H25.4062V36.652H36.75V45.067ZM45.1875 21.0086L34.3612 33.847H25.4062V26.1662L31.7783 19.8987C32.5752 19.1039 33.6346 18.6663 34.7615 18.6663C35.402 18.6663 36.0198 18.8073 36.5804 19.0759L31.5367 24.1062L33.5258 26.0894L42.375 17.2639V7.0125C42.375 5.18373 43.5506 3.62425 45.1875 3.0453V21.0086Z" fill="#03AA77"/>
</svg>
