<svg width="24" height="24" viewBox="0 0 24 24" fill="none" xmlns="http://www.w3.org/2000/svg">
<path fill-rule="evenodd" clip-rule="evenodd" d="M7.70674 1.29289C7.31622 0.902369 6.68305 0.902369 6.29253 1.29289L3.29253 4.29289L3.2896 4.29621C3.26253 4.32353 3.23702 4.35242 3.21322 4.3827L3.20934 4.3871C2.90431 4.77939 2.93204 5.34662 3.29253 5.70711L6.29253 8.70711L6.38673 8.7903C6.77903 9.09532 7.34626 9.06759 7.70674 8.70711L7.78993 8.6129C8.09495 8.22061 8.06722 7.65338 7.70674 7.29289L6.41394 6H14L14.2169 6.00462C16.8777 6.11818 19 8.31124 19 11C19 11.5523 19.4477 12 20 12C20.5523 12 21 11.5523 21 11C21 7.13401 17.866 4 14 4H6.41394L7.70674 2.70711L7.78993 2.6129C8.09495 2.22061 8.06722 1.65338 7.70674 1.29289ZM5.00001 13C5.00001 12.4477 4.55229 12 4.00001 12C3.44772 12 3.00001 12.4477 3.00001 13C3.00001 16.866 6.13401 20 10 20H17.5852L16.2926 21.2929L16.2094 21.3871C15.9043 21.7793 15.932 22.3466 16.2925 22.7071C16.683 23.0976 17.3161 23.0977 17.7067 22.7071L20.7064 19.7078C20.736 19.6782 20.7639 19.6468 20.7896 19.6137L20.7071 19.7071L20.7064 19.7078L16.7075 18H17.5852L5.00001 13ZM5.00001 13C5.00001 15.6888 7.12231 17.8818 9.78312 17.9954L10 18H16.7075L5.00001 13Z" fill="#434343"/>
</svg>
