<svg width="47" height="51" viewBox="0 0 47 51" fill="none" xmlns="http://www.w3.org/2000/svg">
<path d="M46.378 39.0965C46.3119 39.0715 44.7237 38.421 41.3696 38.2625C39.8644 38.2142 38.3578 38.2937 36.8658 38.5002C37.0394 38.048 37.0967 37.559 37.0323 37.0785C36.9679 36.598 36.784 36.1418 36.4977 35.7522L36.2578 35.4228C36.1252 35.2522 35.9318 35.1403 35.7188 35.111C35.5057 35.0816 35.2897 35.1371 35.1165 35.2656C34.9433 35.3942 34.8266 35.5856 34.7911 35.7994C34.7555 36.0133 34.804 36.2326 34.9261 36.4111L35.166 36.7405C35.2605 36.8694 35.3288 37.0158 35.3671 37.1713C35.4054 37.3268 35.4128 37.4885 35.389 37.6469C35.3651 37.8054 35.3105 37.9575 35.2283 38.0946C35.146 38.2318 35.0377 38.3512 34.9096 38.446L34.1569 39.0048C34.0299 39.1011 33.8851 39.1708 33.7309 39.2094C33.5767 39.2481 33.4163 39.2551 33.2594 39.2299C33.1025 39.206 32.952 39.1509 32.8164 39.0679C32.6808 38.9848 32.5629 38.8755 32.4695 38.7462L29.5207 34.7181C29.3307 34.4586 29.2505 34.1338 29.2978 33.8148C29.3451 33.4959 29.516 33.2088 29.7729 33.0168L30.5298 32.4538C30.6562 32.3561 30.8007 32.2847 30.9548 32.2439C31.1089 32.2031 31.2695 32.1937 31.4272 32.2161C31.5841 32.2384 31.7349 32.2924 31.8707 32.3748C32.0064 32.4572 32.1242 32.5663 32.2172 32.6957L32.9616 33.7131C33.0919 33.8902 33.2865 34.008 33.5027 34.0408C33.7189 34.0736 33.9393 34.0188 34.1155 33.8883C34.2034 33.8235 34.2777 33.7419 34.3342 33.6481C34.3907 33.5543 34.4283 33.4502 34.4448 33.3417C34.4613 33.2332 34.4564 33.1226 34.4304 33.016C34.4045 32.9094 34.3579 32.8091 34.2933 32.7207L33.8798 32.1494C33.9919 32.1697 34.1052 32.1836 34.2189 32.1911H34.5084C35.3921 32.1911 36.2477 31.8782 36.9259 31.3071C37.6042 30.736 38.062 29.9429 38.2196 29.0662C38.3772 28.1895 38.2244 27.2849 37.788 26.5101C37.3516 25.7354 36.6593 25.1397 35.8318 24.8271C36.3754 24.3561 36.7746 23.7387 36.9827 23.0473C37.1908 22.3558 37.1992 21.6189 37.007 20.9228C36.8148 20.2267 36.4298 19.6002 35.8972 19.1167C35.3646 18.6332 34.7064 18.3127 33.9997 18.1927C34.176 18.0841 34.3433 17.9614 34.5001 17.8258C34.8779 17.5021 35.1878 17.1055 35.4115 16.6594C35.6352 16.2133 35.7683 15.7266 35.8029 15.2279C35.8735 14.2231 35.5462 13.2309 34.8927 12.4689C34.2392 11.7068 33.3128 11.237 32.3164 11.1623C32.2089 11.1623 32.1014 11.1623 31.9939 11.1623C32.2705 10.6786 32.4358 10.1386 32.4777 9.58187C32.5318 8.91597 32.4111 8.24744 32.1278 7.64345C31.8445 7.03947 31.4085 6.52129 30.8637 6.14098C30.3189 5.76067 29.6843 5.53163 29.0239 5.47686C28.3635 5.42209 27.7004 5.54352 27.1012 5.82895C27.1012 5.77474 27.1012 5.71637 27.1012 5.66216C27.1549 4.91487 26.9885 4.16825 26.6228 3.51601C26.2571 2.86377 25.7085 2.33497 25.0458 1.99598C24.3831 1.657 23.6358 1.52294 22.8978 1.61062C22.1598 1.69831 21.464 2.00384 20.8976 2.48886C20.5461 2.79222 20.253 3.15835 20.0332 3.56886C19.9791 2.65949 19.6027 1.8 18.9726 1.14708C18.3425 0.494161 17.5006 0.0912955 16.6005 0.0119289C16.1062 -0.0277507 15.609 0.0317909 15.1376 0.187109C14.6662 0.342428 14.2301 0.59044 13.8544 0.916799C13.2366 1.43982 12.8041 2.15104 12.6219 2.94338C12.4728 2.4378 12.2212 1.96898 11.8829 1.56664C11.5446 1.1643 11.1271 0.837215 10.6569 0.606133C10.1866 0.375052 9.67386 0.245013 9.15113 0.224262C8.6284 0.203511 8.1071 0.2925 7.62029 0.485588C7.13347 0.678676 6.69175 0.971649 6.32315 1.34593C5.95455 1.72021 5.66711 2.16763 5.47905 2.65982C5.29099 3.15201 5.20642 3.67823 5.23069 4.20511C5.25497 4.732 5.38756 5.24804 5.62007 5.72054C5.03761 5.57469 4.42892 5.57204 3.84522 5.71282C3.26153 5.8536 2.71992 6.13368 2.26597 6.5295C1.8193 6.91464 1.46819 7.39981 1.24072 7.9462C1.01324 8.4926 0.915692 9.08508 0.955881 9.67627C0.996069 10.2675 1.17288 10.841 1.47217 11.351C1.77146 11.861 2.18494 12.2933 2.67954 12.6134C2.07839 12.7968 1.53218 13.1286 1.09046 13.5788C0.648747 14.0289 0.325515 14.5832 0.1501 15.1912C-0.025315 15.7993 -0.0473606 16.4419 0.0859639 17.0607C0.219288 17.6795 0.503762 18.255 0.91357 18.7348C1.23564 19.1149 1.6291 19.427 2.07131 19.6532C2.51351 19.8793 2.99571 20.015 3.49015 20.0525H3.75484C3.32516 20.5927 3.04993 21.241 2.95883 21.9273C2.86773 22.6136 2.96421 23.312 3.23788 23.9472C3.51155 24.5823 3.95202 25.13 4.51176 25.5312C5.07151 25.9325 5.72929 26.172 6.41414 26.224H6.70778C7.57361 26.2261 8.41309 25.9238 9.08171 25.3692C9.02346 25.5889 8.98607 25.8137 8.97004 26.0405C8.93058 26.541 8.98991 27.0444 9.14459 27.5216C9.29927 27.9988 9.54623 28.4404 9.8712 28.8208C10.1962 29.2011 10.5927 29.5128 11.0379 29.7377C11.483 29.9627 11.968 30.0964 12.4648 30.1312H12.7543C13.4156 30.1318 14.0651 29.9548 14.636 29.6183C14.636 29.6933 14.6154 29.7726 14.6071 29.8518C14.5318 30.8581 14.8559 31.8534 15.5081 32.6188C16.1603 33.3843 17.0873 33.8574 18.0853 33.9342H18.3748C19.1255 33.9363 19.8593 33.7096 20.4799 33.2836C20.407 34.2881 20.7322 35.2808 21.3843 36.0437C22.0363 36.8067 22.962 37.2778 23.9581 37.3535H24.2476C25.0204 37.353 25.7744 37.1126 26.4071 36.665C27.0397 36.2173 27.5204 35.5842 27.7836 34.8515C27.8776 35.1495 28.0171 35.4309 28.1972 35.6855L31.1377 39.722C31.3593 40.0278 31.6391 40.286 31.9608 40.4814C32.2825 40.6769 32.6396 40.8057 33.0112 40.8604C33.148 40.8828 33.2863 40.8939 33.4248 40.8937C33.6719 40.8934 33.9179 40.8612 34.1569 40.7978C34.3121 42.5514 34.6349 44.2858 35.1205 45.9768C36.0552 49.2294 37.0643 50.6221 37.1057 50.6805C37.2383 50.8511 37.4317 50.963 37.6447 50.9923C37.8578 51.0217 38.0738 50.9662 38.247 50.8377C38.4201 50.7092 38.5369 50.5177 38.5724 50.3039C38.608 50.09 38.5595 49.8707 38.4374 49.6922C38.4374 49.6922 37.5523 48.4413 36.7086 45.5223C36.6135 45.1971 36.5308 44.876 36.4522 44.5591C36.6673 44.9761 36.903 45.3931 37.1553 45.8101C38.9006 48.729 40.2323 49.7923 40.2902 49.834C40.4608 49.9696 40.6775 50.032 40.8934 50.0078C41.1093 49.9836 41.3071 49.8747 41.4441 49.7048C41.5815 49.5327 41.6457 49.3127 41.6224 49.093C41.5992 48.8733 41.4904 48.6719 41.32 48.533C41.32 48.533 40.1785 47.5823 38.6483 45.072C40.8154 47.6615 42.296 48.5205 42.3705 48.558C42.5608 48.6686 42.7869 48.6985 42.999 48.641C43.2111 48.5835 43.3919 48.4434 43.5016 48.2515C43.6113 48.0597 43.6409 47.8317 43.5839 47.6178C43.5269 47.4039 43.3879 47.2217 43.1976 47.1111C43.1976 47.1111 41.8783 46.323 39.9304 43.9961C39.5747 43.5792 39.248 43.1622 38.9502 42.7452C39.4837 42.9578 40.0462 43.2039 40.6045 43.4874C43.3134 44.8385 44.3763 45.9268 44.3846 45.9352C44.462 46.017 44.555 46.0821 44.6581 46.1265C44.7612 46.171 44.8722 46.1938 44.9843 46.1937C45.1455 46.1931 45.303 46.1451 45.4374 46.0555C45.5719 45.9659 45.6775 45.8386 45.7412 45.6893C45.8049 45.5401 45.8239 45.3753 45.796 45.2152C45.7681 45.0552 45.6944 44.9068 45.584 44.7884C45.5343 44.7342 44.3432 43.4916 41.3365 41.9946C44.1241 42.8869 45.2986 43.7668 45.3069 43.7751C45.4518 43.8866 45.6292 43.9467 45.8114 43.9461C45.9837 43.9456 46.1514 43.8908 46.2913 43.7896C46.4312 43.6883 46.5363 43.5455 46.5918 43.3811C46.6474 43.2168 46.6507 43.039 46.6012 42.8727C46.5518 42.7064 46.4521 42.5597 46.316 42.4533C46.2622 42.4116 44.8974 41.3691 41.6922 40.3683C41.229 40.2224 40.7699 40.0931 40.3316 39.9805H41.3076C44.3267 40.1014 45.737 40.6644 45.7494 40.6686C45.8493 40.7093 45.956 40.7305 46.0637 40.7311C46.2728 40.7592 46.4846 40.7056 46.6558 40.5815C46.827 40.4573 46.9447 40.2719 46.9849 40.0631C47.025 39.8544 46.9846 39.6381 46.8718 39.4584C46.759 39.2787 46.5824 39.1493 46.378 39.0965ZM36.1089 27.0038C36.2919 27.216 36.4311 27.4628 36.5184 27.7299C36.6057 27.9969 36.6395 28.2788 36.6176 28.5591C36.5993 28.8412 36.5256 29.1169 36.4008 29.37C36.276 29.6232 36.1026 29.8489 35.8906 30.0339C35.6786 30.2189 35.4322 30.3597 35.1659 30.448C34.8995 30.5363 34.6184 30.5703 34.3388 30.5482C33.7871 30.5141 33.2704 30.2639 32.8991 29.8509C32.5279 29.4379 32.3316 28.8949 32.3521 28.3379C32.3726 27.7809 32.6084 27.2541 33.009 26.87C33.4095 26.4859 33.9432 26.275 34.496 26.2824H34.6573C34.9346 26.3025 35.2053 26.3776 35.4537 26.5036C35.7021 26.6295 35.9234 26.8038 36.1048 27.0163L36.1089 27.0038ZM34.9799 20.5654C35.2077 20.8314 35.3671 21.1498 35.4438 21.4926C35.5206 21.8354 35.5124 22.192 35.42 22.5308C35.3276 22.8697 35.1539 23.1804 34.9141 23.4354C34.6743 23.6905 34.3759 23.882 34.0452 23.9932C33.7146 24.1043 33.3618 24.1316 33.0182 24.0726C32.6746 24.0136 32.3507 23.8702 32.0752 23.655C31.7996 23.4398 31.5808 23.1595 31.4383 22.8388C31.2957 22.5181 31.2337 22.167 31.2577 21.8164C31.2983 21.2798 31.5379 20.7784 31.9288 20.4121C32.3197 20.0458 32.8332 19.8414 33.3669 19.8399H33.5324C34.0903 19.8818 34.6099 20.1423 34.9799 20.5654ZM32.0393 12.8177H32.2006C32.5442 12.849 32.875 12.9644 33.1643 13.154C33.4535 13.3436 33.6924 13.6015 33.8602 13.9054C34.0281 14.2093 34.1197 14.5499 34.1272 14.8976C34.1347 15.2454 34.0579 15.5897 33.9033 15.9007C33.7487 16.2116 33.5211 16.4798 33.2404 16.6818C32.9596 16.8839 32.6341 17.0137 32.2922 17.0601C31.9503 17.1064 31.6023 17.0678 31.2786 16.9476C30.9549 16.8274 30.6651 16.6293 30.4347 16.3705C30.2523 16.158 30.1137 15.9111 30.0271 15.644C29.9404 15.377 29.9075 15.0952 29.9301 14.8151C29.9657 14.2748 30.2032 13.7683 30.5946 13.3976C30.986 13.0269 31.5023 12.8197 32.0393 12.8177ZM27.3535 7.66371C27.7357 7.32949 28.2248 7.14585 28.7307 7.14665H28.892C29.4523 7.19009 29.9728 7.45546 30.3395 7.88472C30.6133 8.20434 30.7869 8.59863 30.8384 9.01772C30.8898 9.43681 30.8169 9.86189 30.6287 10.2392C30.4406 10.6165 30.1457 10.929 29.7814 11.1373C29.417 11.3456 28.9996 11.4403 28.5819 11.4094C28.1642 11.3785 27.7649 11.2233 27.4346 10.9636C27.1044 10.7039 26.8579 10.3513 26.7264 9.95035C26.5949 9.54941 26.5843 9.11815 26.696 8.71113C26.8076 8.30411 27.0364 7.9396 27.3535 7.66371ZM22.0184 3.76068C22.3355 3.48959 22.7248 3.31863 23.1377 3.26913C23.5505 3.21963 23.9687 3.29377 24.3401 3.48232C24.7114 3.67086 25.0195 3.96546 25.2259 4.32937C25.4323 4.69328 25.5279 5.11041 25.5007 5.52872C25.4579 6.09385 25.1942 6.6187 24.7677 6.98781C24.3411 7.35692 23.7865 7.54005 23.226 7.49692C22.6655 7.45379 22.145 7.18793 21.7789 6.75782C21.4128 6.32771 21.2312 5.7686 21.2739 5.20347C21.2954 4.92615 21.3711 4.65587 21.4968 4.40823C21.6224 4.16059 21.7955 3.9405 22.006 3.76068H22.0184ZM14.9173 2.19279C15.2994 1.85857 15.7886 1.67492 16.2945 1.67572H16.4599C16.738 1.69708 17.0092 1.77345 17.258 1.90047C17.5068 2.0275 17.7283 2.20269 17.91 2.41604C18.0916 2.6294 18.2298 2.87674 18.3167 3.14394C18.4035 3.41114 18.4373 3.69297 18.4161 3.97334C18.3949 4.25372 18.3192 4.52713 18.1932 4.77799C18.0672 5.02885 17.8935 5.25223 17.6819 5.43538C17.4703 5.61853 17.225 5.75787 16.9599 5.84543C16.6949 5.93299 16.4154 5.96707 16.1373 5.94571C15.7169 5.91847 15.3142 5.76543 14.9805 5.50617C14.6469 5.2469 14.3975 4.89319 14.2643 4.49026C14.1311 4.08733 14.1201 3.6535 14.2327 3.24424C14.3454 2.83498 14.5765 2.46889 14.8966 2.19279H14.9173ZM7.62592 2.42214C8.00809 2.08791 8.49722 1.90427 9.00313 1.90507H9.15615C9.57598 1.93467 9.97759 2.08949 10.3099 2.34984C10.6422 2.61019 10.8903 2.96431 11.0224 3.36716C11.1546 3.77002 11.165 4.20341 11.0522 4.61222C10.9394 5.02103 10.7086 5.38679 10.3891 5.66299C10.0697 5.93918 9.67591 6.11334 9.25798 6.1633C8.84006 6.21327 8.41684 6.13679 8.04214 5.94358C7.66744 5.75038 7.3582 5.44919 7.15373 5.07831C6.94926 4.70742 6.85882 4.28361 6.89389 3.86076C6.91588 3.58416 6.99187 3.31467 7.1175 3.06778C7.24313 2.8209 7.41591 2.60148 7.62592 2.42214ZM2.60923 9.25245C2.64981 8.71591 2.88944 8.21449 3.28036 7.84816C3.67129 7.48183 4.18478 7.2775 4.71848 7.27591H4.88391C5.44342 7.31962 5.96297 7.58505 6.32883 8.0141C6.69469 8.44316 6.87705 9.00088 6.83599 9.56519C6.81644 9.84534 6.74163 10.1187 6.61593 10.3693C6.49022 10.62 6.31617 10.8428 6.10396 11.0247C5.78641 11.301 5.39462 11.476 4.97828 11.5275C4.56194 11.579 4.13982 11.5046 3.76545 11.3139C3.39108 11.1231 3.08132 10.8246 2.87548 10.4561C2.66963 10.0876 2.57696 9.66578 2.60923 9.24411V9.25245ZM3.61423 18.3887C3.07153 18.3406 2.568 18.0838 2.20796 17.6715C1.84792 17.2593 1.65896 16.7232 1.68022 16.1743C1.70149 15.6254 1.93135 15.1058 2.32219 14.7232C2.71303 14.3405 3.23489 14.1241 3.77966 14.1187H3.94095C4.50145 14.1613 5.02222 14.4266 5.3887 14.8564C5.75517 15.2861 5.93733 15.845 5.8951 16.4101C5.85287 16.9752 5.58971 17.5003 5.16352 17.8698C4.73732 18.2393 4.183 18.423 3.6225 18.3804L3.61423 18.3887ZM8.08085 24.0598C7.82214 24.2844 7.51342 24.4426 7.18098 24.5209C6.84855 24.5992 6.50226 24.5953 6.17164 24.5095C5.84102 24.4238 5.53587 24.2587 5.28219 24.0283C5.02851 23.798 4.83383 23.5092 4.71474 23.1866C4.59565 22.8641 4.55569 22.5172 4.59825 22.1757C4.64081 21.8342 4.76463 21.5081 4.95917 21.2253C5.15371 20.9424 5.41319 20.7112 5.7155 20.5513C6.01781 20.3914 6.35398 20.3075 6.69537 20.3069H6.8608C7.27843 20.3398 7.67705 20.4966 8.00643 20.7575C8.33581 21.0185 8.58121 21.3719 8.71168 21.7733C8.84216 22.1746 8.85188 22.6059 8.73962 23.0128C8.62735 23.4197 8.39814 23.784 8.08085 24.0598ZM14.1191 27.9628C13.8602 28.1875 13.5513 28.3458 13.2187 28.424C12.8861 28.5023 12.5396 28.4983 12.2089 28.4123C11.8781 28.3263 11.5729 28.161 11.3193 27.9303C11.0656 27.6997 10.8711 27.4106 10.7522 27.0877C10.6334 26.7649 10.5938 26.4178 10.6368 26.0762C10.6798 25.7345 10.8041 25.4084 10.9992 25.1257C11.1942 24.843 11.4542 24.6121 11.7569 24.4526C12.0597 24.2931 12.3962 24.2099 12.7377 24.2099H12.8783C13.156 24.231 13.4267 24.3071 13.6752 24.4338C13.9236 24.5606 14.1448 24.7354 14.3261 24.9485C14.5074 25.1615 14.6453 25.4085 14.7318 25.6753C14.8184 25.9421 14.8519 26.2235 14.8304 26.5034C14.8135 26.782 14.7419 27.0545 14.6198 27.305C14.4977 27.5555 14.3275 27.7791 14.1191 27.9628ZM19.7354 31.7992C19.4767 32.0262 19.1672 32.1865 18.8335 32.2665C18.4998 32.3465 18.1519 32.3438 17.8195 32.2585C17.4871 32.1732 17.1802 32.0079 16.925 31.7768C16.6698 31.5457 16.474 31.2557 16.3544 30.9316C16.2347 30.6075 16.1948 30.259 16.238 29.9159C16.2812 29.5729 16.4062 29.2455 16.6024 28.9618C16.7986 28.6781 17.0601 28.4467 17.3645 28.2872C17.6688 28.1277 18.007 28.0451 18.35 28.0462H18.5154C18.933 28.0791 19.3316 28.2359 19.661 28.4969C19.9904 28.7578 20.2358 29.1113 20.3663 29.5126C20.4967 29.914 20.5065 30.3453 20.3942 30.7522C20.2819 31.1591 20.0527 31.5234 19.7354 31.7992ZM25.6041 35.2226C25.3936 35.406 25.1493 35.5457 24.8851 35.6337C24.6209 35.7217 24.3421 35.7562 24.0647 35.7352C23.7873 35.7143 23.5167 35.6384 23.2684 35.5118C23.0202 35.3852 22.7992 35.2104 22.6181 34.9975C22.3524 34.6878 22.1806 34.3077 22.1232 33.9024C22.0658 33.4971 22.1252 33.0836 22.2943 32.7114C22.4634 32.3391 22.7351 32.0238 23.077 31.8029C23.419 31.582 23.8167 31.4649 24.2227 31.4656H24.384C24.8044 31.4928 25.2072 31.6458 25.5408 31.9051C25.8745 32.1644 26.1239 32.5181 26.2571 32.921C26.3903 33.3239 26.4013 33.7578 26.2886 34.167C26.176 34.5763 25.9449 34.9424 25.6248 35.2185L25.6041 35.2226ZM27.9036 32.7749C27.7725 32.1572 27.4878 31.5833 27.0764 31.1069C26.4744 30.4017 25.6368 29.9434 24.7222 29.8189C23.8076 29.6944 22.8795 29.9123 22.1135 30.4314C22.162 29.7425 22.0237 29.0532 21.7134 28.4375C21.4031 27.8217 20.9325 27.3027 20.3521 26.9359C19.7716 26.5692 19.1031 26.3685 18.4182 26.3555C17.7333 26.3425 17.0578 26.5176 16.464 26.862C16.4766 26.7861 16.4849 26.7095 16.4889 26.6326C16.5456 25.8918 16.3856 25.1505 16.0287 24.5004C15.6719 23.8503 15.1337 23.32 14.4809 22.9752C13.8282 22.6304 13.0894 22.4861 12.3562 22.5603C11.6229 22.6345 10.9273 22.9239 10.3555 23.3926C10.4104 23.1738 10.4464 22.9505 10.4631 22.7254C10.5383 21.7191 10.2142 20.7239 9.56202 19.9584C8.90982 19.1929 7.98287 18.7198 6.98487 18.6431C6.89664 18.6431 6.80979 18.6431 6.72432 18.6431C7.05334 18.2265 7.292 17.7449 7.42488 17.2294C7.55776 16.714 7.58192 16.1762 7.49578 15.6508C7.40964 15.1253 7.21512 14.624 6.9248 14.1791C6.63447 13.7342 6.2548 13.3556 5.81032 13.0679C6.31625 12.9182 6.78446 12.6608 7.18339 12.3132C7.82019 11.763 8.25698 11.0146 8.42476 10.1862C8.59253 9.35776 8.48171 8.49659 8.1098 7.73877C8.31127 7.78559 8.51584 7.81764 8.7219 7.83468H9.0114C9.86389 7.8316 10.6904 7.53839 11.3569 7.00255C12.0235 6.46671 12.4911 5.71964 12.684 4.88238C12.8332 5.39432 13.0899 5.8679 13.4367 6.27096C13.7552 6.65724 14.1473 6.97512 14.5899 7.20576C15.0325 7.43641 15.5165 7.57512 16.0133 7.61368H16.3028C16.9821 7.60998 17.6479 7.42175 18.2302 7.06879C18.8124 6.71583 19.2895 6.21119 19.6114 5.60795C19.6657 6.52685 20.0485 7.39477 20.6887 8.05103C21.3289 8.70729 22.1833 9.10744 23.0937 9.17739H23.3832C23.9294 9.17903 24.4691 9.05795 24.963 8.82295V8.98558C24.8878 9.99187 25.2119 10.9871 25.8641 11.7526C26.5163 12.5181 27.4432 12.9912 28.4412 13.0679H28.7307H28.7555C28.455 13.6003 28.2863 14.198 28.2638 14.8101C28.2412 15.4223 28.3656 16.0309 28.6262 16.5843C28.8868 17.1377 29.276 17.6195 29.7608 17.9888C30.2456 18.3581 30.8115 18.604 31.4107 18.7056C31.2344 18.8142 31.0671 18.937 30.9103 19.0726C30.4129 19.5031 30.0354 20.0568 29.815 20.6791C29.5945 21.3015 29.5388 21.9711 29.6531 22.6218C29.7675 23.2726 30.0481 23.882 30.4673 24.3901C30.8865 24.8982 31.4297 25.2874 32.0435 25.5193C31.3451 26.1274 30.8924 26.9728 30.7712 27.8952C30.65 28.8175 30.8687 29.7526 31.3859 30.5232C30.7277 30.4918 30.079 30.6906 29.5496 31.0861L28.7969 31.6449C28.4126 31.9343 28.1056 32.3154 27.9036 32.7541V32.7749Z" fill="#03AA77"/>
</svg>
