<svg width="33" height="32" viewBox="0 0 33 32" fill="none" xmlns="http://www.w3.org/2000/svg">
<g clip-path="url(#clip0_122_621)">
<path d="M29.0775 3H28.3138C27.0673 3 25.9582 3.59922 25.2608 4.52344H25.2587C24.0107 4.52344 22.9008 5.12367 22.2037 6.04941V6.04688C20.0978 6.04688 18.3849 7.75556 18.3849 9.85547V13.5192L16.0428 15.8229L13.7006 13.5192V9.85547C13.7006 7.75556 11.9877 6.04688 9.88179 6.04688V6.04941C9.18469 5.12367 8.07485 4.52344 6.82677 4.52344H6.82474C6.12733 3.59922 5.0182 3 3.77175 3H3.008V14.9651L8.41951 21.3828H7.59053V29H24.495V21.3828H23.666L29.0775 14.9651V3ZM12.1731 9.85547V12.164C11.7071 11.8835 11.1862 11.706 10.6455 11.6435V8.33203C10.6455 8.11062 10.6253 7.89328 10.589 7.68203C11.5072 7.98012 12.1731 8.84137 12.1731 9.85547ZM7.59053 6.17738C8.47954 6.49182 9.11804 7.3388 9.11804 8.33203V11.7709C8.75442 11.8771 8.40877 12.037 8.09257 12.2452L7.59053 11.745V6.17738ZM15.279 27.4766H9.11804V22.9062H15.279V27.4766ZM15.279 21.3828H10.4154L4.53551 14.4101V4.654C5.42452 4.96828 6.06302 5.81531 6.06302 6.80859V12.3763L10.8691 17.1695L11.9495 16.0925L9.21015 13.3604C9.51463 13.2145 9.85017 13.138 10.198 13.138C10.8101 13.138 11.3854 13.3756 11.8182 13.8073L15.279 17.2112V21.3828ZM22.9675 8.33203C22.9675 7.3388 23.606 6.49182 24.495 6.17738V11.745L23.9929 12.2452C23.6767 12.037 23.3311 11.8771 22.9675 11.7709V8.33203ZM19.9124 9.85547C19.9124 8.84142 20.5783 7.98012 21.4965 7.68203C21.4593 7.89672 21.4404 8.11416 21.44 8.33203V11.6435C20.8993 11.706 20.3784 11.8835 19.9124 12.164V9.85547ZM22.9675 27.4766H16.8065V22.9062H22.9675V27.4766ZM27.55 14.4101L21.6701 21.3828H16.8065V17.2112L20.2673 13.8073C20.7001 13.3756 21.2754 13.138 21.8875 13.138C22.2353 13.138 22.5709 13.2145 22.8754 13.3604L20.136 16.0924L21.2164 17.1695L26.0225 12.3763V6.80859C26.0225 5.81536 26.661 4.96838 27.55 4.65395V14.4101Z" fill="#03AA77"/>
<path d="M19.9125 24.4297H21.44V25.9531H19.9125V24.4297Z" fill="#8789A3"/>
<path d="M10.6456 24.4297H12.1731V25.9531H10.6456V24.4297Z" fill="#8789A3"/>
</g>
<defs>
<clipPath id="clip0_122_621">
<rect width="26.0695" height="26" fill="white" transform="translate(3.008 3)"/>
</clipPath>
</defs>
</svg>
