<svg width="32" height="32" viewBox="0 0 32 32" fill="none" xmlns="http://www.w3.org/2000/svg">
<g clip-path="url(#clip0_122_651)">
<path d="M29.6925 24.4397C29.6525 24.4247 28.6925 24.0347 26.665 23.9397C25.7551 23.9107 24.8443 23.9583 23.9425 24.0822C24.0474 23.8111 24.082 23.5178 24.0431 23.2298C24.0042 22.9417 23.893 22.6682 23.72 22.4347L23.575 22.2372C23.4948 22.1348 23.3779 22.0678 23.2491 22.0502C23.1203 22.0326 22.9897 22.0659 22.8851 22.1429C22.7804 22.22 22.7098 22.3348 22.6883 22.463C22.6668 22.5912 22.6961 22.7227 22.77 22.8297L22.915 23.0272C22.9721 23.1044 23.0134 23.1922 23.0365 23.2854C23.0597 23.3787 23.0641 23.4756 23.0497 23.5706C23.0353 23.6656 23.0023 23.7568 22.9526 23.839C22.9029 23.9212 22.8374 23.9928 22.76 24.0497L22.305 24.3847C22.2282 24.4424 22.1407 24.4842 22.0474 24.5074C21.9542 24.5306 21.8573 24.5347 21.7625 24.5197C21.6676 24.5053 21.5766 24.4723 21.4946 24.4225C21.4127 24.3727 21.3414 24.3072 21.285 24.2297L19.5025 21.8147C19.3876 21.6591 19.3392 21.4643 19.3678 21.2731C19.3963 21.0819 19.4996 20.9098 19.655 20.7947L20.1125 20.4572C20.1889 20.3986 20.2762 20.3558 20.3694 20.3313C20.4625 20.3068 20.5596 20.3012 20.655 20.3147C20.7498 20.328 20.8409 20.3604 20.923 20.4098C21.005 20.4592 21.0763 20.5246 21.1325 20.6022L21.5825 21.2122C21.6612 21.3183 21.7788 21.3889 21.9095 21.4086C22.0402 21.4283 22.1734 21.3954 22.28 21.3172C22.3331 21.2783 22.378 21.2294 22.4121 21.1731C22.4463 21.1169 22.469 21.0545 22.479 20.9895C22.489 20.9244 22.486 20.8581 22.4703 20.7942C22.4546 20.7303 22.4265 20.6701 22.3875 20.6172L22.1375 20.2747C22.2053 20.2868 22.2737 20.2952 22.3425 20.2997H22.5175C23.0516 20.2996 23.5688 20.1121 23.9788 19.7697C24.3888 19.4273 24.6656 18.9518 24.7608 18.4262C24.8561 17.9006 24.7637 17.3582 24.4999 16.8937C24.2361 16.4292 23.8176 16.0721 23.3175 15.8847C23.646 15.6023 23.8873 15.2322 24.0131 14.8176C24.1389 14.4031 24.144 13.9613 24.0278 13.5439C23.9116 13.1266 23.6789 12.751 23.357 12.4611C23.035 12.1712 22.6372 11.9791 22.21 11.9072C22.3165 11.842 22.4177 11.7685 22.5125 11.6872C22.7408 11.4931 22.9281 11.2553 23.0634 10.9879C23.1986 10.7204 23.279 10.4286 23.3 10.1297C23.3426 9.52719 23.1448 8.93238 22.7498 8.47551C22.3548 8.01864 21.7948 7.73695 21.1925 7.69215C21.1275 7.69215 21.0625 7.69215 20.9975 7.69215C21.1647 7.40221 21.2646 7.0784 21.29 6.74465C21.3226 6.34542 21.2497 5.94462 21.0784 5.58251C20.9072 5.22039 20.6436 4.90973 20.3143 4.68172C19.9849 4.45372 19.6014 4.3164 19.2022 4.28356C18.803 4.25072 18.4021 4.32352 18.04 4.49465C18.04 4.46215 18.04 4.42715 18.04 4.39465C18.0724 3.94663 17.9718 3.49901 17.7507 3.10797C17.5297 2.71692 17.1981 2.39989 16.7975 2.19666C16.3969 1.99343 15.9452 1.91305 15.4991 1.96562C15.053 2.01819 14.6323 2.20137 14.29 2.49215C14.0775 2.67403 13.9003 2.89353 13.7675 3.13965C13.7348 2.59445 13.5072 2.07916 13.1263 1.68771C12.7454 1.29627 12.2366 1.05473 11.6925 1.00715C11.3936 0.983363 11.0931 1.01906 10.8081 1.11218C10.5232 1.2053 10.2596 1.35399 10.0325 1.54965C9.65902 1.86322 9.39757 2.28962 9.28745 2.76465C9.19733 2.46154 9.0452 2.18047 8.84072 1.93925C8.63624 1.69803 8.38387 1.50194 8.09961 1.3634C7.81534 1.22486 7.5054 1.14689 7.18942 1.13445C6.87344 1.12201 6.55832 1.17536 6.26405 1.29113C5.96977 1.40689 5.70277 1.58254 5.47995 1.80693C5.25714 2.03132 5.08339 2.29957 4.96971 2.59465C4.85603 2.88974 4.8049 3.20522 4.81958 3.52111C4.83425 3.83699 4.91441 4.14638 5.05495 4.42965C4.70286 4.34221 4.33492 4.34063 3.98209 4.42503C3.62926 4.50943 3.30186 4.67735 3.02745 4.91465C2.75745 5.14556 2.54521 5.43643 2.40771 5.76401C2.2702 6.0916 2.21123 6.44681 2.23553 6.80125C2.25982 7.15569 2.3667 7.49953 2.54762 7.80529C2.72853 8.11105 2.97847 8.37024 3.27745 8.56215C2.91407 8.6721 2.58389 8.87104 2.31688 9.14093C2.04987 9.41082 1.85448 9.74312 1.74845 10.1077C1.64241 10.4722 1.62909 10.8575 1.70968 11.2285C1.79027 11.5995 1.96223 11.9445 2.20995 12.2322C2.40464 12.46 2.64248 12.6472 2.90978 12.7827C3.17709 12.9183 3.46857 12.9997 3.76745 13.0222H3.92745C3.66772 13.346 3.50135 13.7347 3.44628 14.1461C3.39121 14.5576 3.44953 14.9763 3.61496 15.3571C3.78039 15.7379 4.04664 16.0663 4.385 16.3068C4.72336 16.5474 5.12097 16.691 5.53495 16.7222H5.71245C6.23583 16.7234 6.74329 16.5422 7.14745 16.2097C7.11224 16.3414 7.08964 16.4761 7.07995 16.6122C7.0561 16.9122 7.09196 17.214 7.18546 17.5001C7.27896 17.7862 7.42825 18.0509 7.62469 18.279C7.82113 18.5071 8.06083 18.6939 8.32992 18.8288C8.59902 18.9636 8.89218 19.0438 9.19245 19.0647H9.36745C9.7672 19.065 10.1598 18.9589 10.505 18.7572C10.505 18.8022 10.4925 18.8497 10.4875 18.8972C10.442 19.5005 10.6379 20.0971 11.0321 20.5561C11.4264 21.015 11.9867 21.2987 12.59 21.3447H12.765C13.2187 21.3459 13.6623 21.21 14.0375 20.9547C13.9934 21.5569 14.19 22.152 14.5841 22.6094C14.9783 23.0669 15.5378 23.3493 16.14 23.3947H16.315C16.7821 23.3944 17.2379 23.2502 17.6203 22.9819C18.0028 22.7135 18.2933 22.3339 18.4525 21.8947C18.5092 22.0733 18.5936 22.242 18.7025 22.3947L20.48 24.8147C20.6139 24.998 20.783 25.1528 20.9775 25.27C21.1719 25.3872 21.3878 25.4644 21.6125 25.4972C21.6951 25.5106 21.7787 25.5173 21.8625 25.5172C22.0118 25.5169 22.1605 25.4976 22.305 25.4597C22.3988 26.511 22.5939 27.5508 22.8875 28.5647C23.4525 30.5147 24.0625 31.3497 24.0875 31.3847C24.1676 31.487 24.2845 31.554 24.4133 31.5716C24.5421 31.5892 24.6727 31.5559 24.7774 31.4789C24.882 31.4018 24.9526 31.287 24.9741 31.1588C24.9956 31.0306 24.9663 30.8991 24.8925 30.7922C24.8925 30.7922 24.3575 30.0422 23.8475 28.2922C23.79 28.0972 23.74 27.9047 23.6925 27.7147C23.8225 27.9647 23.965 28.2147 24.1175 28.4647C25.1725 30.2147 25.9775 30.8522 26.0125 30.8772C26.1156 30.9584 26.2466 30.9958 26.3771 30.9813C26.5076 30.9668 26.6272 30.9016 26.71 30.7997C26.7931 30.6965 26.8318 30.5646 26.8178 30.4329C26.8037 30.3012 26.738 30.1804 26.635 30.0972C26.635 30.0972 25.945 29.5272 25.02 28.0222C26.33 29.5747 27.225 30.0897 27.27 30.1122C27.385 30.1785 27.5217 30.1963 27.6499 30.1619C27.7781 30.1274 27.8874 30.0434 27.9537 29.9284C28.02 29.8134 28.0379 29.6767 28.0034 29.5485C27.969 29.4202 27.885 29.311 27.77 29.2447C27.77 29.2447 26.9725 28.7722 25.795 27.3772C25.58 27.1272 25.3825 26.8772 25.2025 26.6272C25.525 26.7547 25.865 26.9022 26.2025 27.0722C27.84 27.8822 28.4825 28.5347 28.4875 28.5397C28.5342 28.5887 28.5905 28.6277 28.6528 28.6544C28.7151 28.681 28.7822 28.6947 28.85 28.6947C28.9474 28.6943 29.0426 28.6655 29.1239 28.6118C29.2052 28.5581 29.269 28.4818 29.3075 28.3923C29.346 28.3028 29.3575 28.204 29.3406 28.108C29.3237 28.0121 29.2792 27.9231 29.2125 27.8522C29.1825 27.8197 28.4625 27.0746 26.645 26.1772C28.33 26.7122 29.04 27.2397 29.045 27.2447C29.1325 27.3115 29.2398 27.3475 29.35 27.3472C29.4541 27.3468 29.5555 27.314 29.64 27.2533C29.7246 27.1926 29.7881 27.107 29.8217 27.0084C29.8553 26.9099 29.8572 26.8033 29.8274 26.7036C29.7975 26.6039 29.7372 26.516 29.655 26.4522C29.6225 26.4272 28.7975 25.8022 26.86 25.2022C26.58 25.1147 26.3025 25.0372 26.0375 24.9697H26.6275C28.4525 25.0422 29.305 25.3797 29.3125 25.3822C29.3728 25.4066 29.4373 25.4193 29.5025 25.4197C29.6288 25.4365 29.7569 25.4044 29.8604 25.3299C29.9639 25.2555 30.035 25.1443 30.0593 25.0192C30.0835 24.894 30.0591 24.7643 29.9909 24.6566C29.9227 24.5489 29.816 24.4713 29.6925 24.4397ZM23.485 17.1897C23.5955 17.3169 23.6797 17.4649 23.7325 17.625C23.7853 17.7851 23.8057 17.9541 23.7925 18.1222C23.7814 18.2913 23.7368 18.4565 23.6614 18.6083C23.5859 18.7601 23.4811 18.8954 23.353 19.0063C23.2248 19.1173 23.0759 19.2016 22.9149 19.2546C22.7539 19.3075 22.5839 19.3279 22.415 19.3147C22.0814 19.2942 21.7691 19.1442 21.5447 18.8966C21.3203 18.649 21.2016 18.3235 21.214 17.9895C21.2264 17.6556 21.3689 17.3398 21.6111 17.1095C21.8532 16.8792 22.1758 16.7528 22.51 16.7572H22.6075C22.7751 16.7692 22.9387 16.8143 23.0889 16.8898C23.2391 16.9653 23.3728 17.0698 23.4825 17.1972L23.485 17.1897ZM22.8025 13.3297C22.9402 13.4891 23.0365 13.68 23.0829 13.8855C23.1293 14.091 23.1244 14.3048 23.0685 14.508C23.0127 14.7111 22.9076 14.8974 22.7627 15.0503C22.6177 15.2032 22.4373 15.3181 22.2375 15.3847C22.0376 15.4513 21.8244 15.4677 21.6167 15.4323C21.409 15.397 21.2132 15.311 21.0466 15.182C20.88 15.0529 20.7478 14.8849 20.6616 14.6926C20.5754 14.5004 20.5379 14.2898 20.5525 14.0797C20.577 13.758 20.7218 13.4574 20.9581 13.2377C21.1944 13.0181 21.5048 12.8956 21.8275 12.8947H21.9275C22.2647 12.9198 22.5788 13.076 22.8025 13.3297ZM21.025 8.68465H21.1225C21.3301 8.7034 21.5301 8.77261 21.7049 8.88626C21.8798 8.99991 22.0242 9.15455 22.1257 9.33674C22.2271 9.51893 22.2825 9.72315 22.287 9.93163C22.2916 10.1401 22.2451 10.3465 22.1517 10.533C22.0582 10.7194 21.9207 10.8802 21.7509 11.0013C21.5812 11.1225 21.3845 11.2003 21.1778 11.2281C20.9711 11.2558 20.7608 11.2327 20.5651 11.1606C20.3694 11.0886 20.1943 10.9698 20.055 10.8147C19.9447 10.6873 19.8609 10.5392 19.8086 10.3791C19.7562 10.219 19.7363 10.0501 19.75 9.88215C19.7715 9.55825 19.915 9.25455 20.1516 9.03231C20.3882 8.81008 20.7003 8.68584 21.025 8.68465ZM18.1925 5.59465C18.4235 5.39427 18.7191 5.28417 19.025 5.28465H19.1225C19.4611 5.3107 19.7757 5.4698 19.9975 5.72715C20.1629 5.91877 20.2679 6.15516 20.299 6.40642C20.3301 6.65768 20.286 6.91253 20.1723 7.13873C20.0585 7.36493 19.8803 7.55231 19.66 7.6772C19.4398 7.80208 19.1875 7.85884 18.935 7.8403C18.6825 7.82177 18.4411 7.72877 18.2415 7.57306C18.0419 7.41736 17.8929 7.20595 17.8134 6.96557C17.7339 6.72519 17.7275 6.46664 17.795 6.22261C17.8624 5.97859 18.0008 5.76006 18.1925 5.59465ZM14.9675 3.25465C15.1592 3.09212 15.3945 2.98963 15.644 2.95995C15.8936 2.93028 16.1464 2.97473 16.3709 3.08777C16.5954 3.2008 16.7816 3.37742 16.9063 3.5956C17.0311 3.81378 17.0889 4.06386 17.0725 4.31465C17.0466 4.65347 16.8872 4.96813 16.6293 5.18942C16.3715 5.41072 16.0363 5.52051 15.6975 5.49465C15.3586 5.46879 15.044 5.3094 14.8227 5.05154C14.6014 4.79368 14.4916 4.45847 14.5175 4.11965C14.5304 3.95339 14.5762 3.79135 14.6522 3.64288C14.7281 3.49441 14.8327 3.36246 14.96 3.25465H14.9675ZM10.675 2.31465C10.906 2.11427 11.2016 2.00417 11.5075 2.00465H11.6075C11.7755 2.01746 11.9395 2.06324 12.0899 2.1394C12.2403 2.21555 12.3742 2.32059 12.484 2.4485C12.5938 2.57641 12.6773 2.7247 12.7298 2.8849C12.7823 3.04509 12.8028 3.21406 12.79 3.38215C12.7771 3.55024 12.7314 3.71417 12.6552 3.86456C12.5791 4.01496 12.474 4.14889 12.3461 4.25869C12.2182 4.3685 12.0699 4.45203 11.9097 4.50453C11.7495 4.55703 11.5805 4.57746 11.4125 4.56465C11.1583 4.54832 10.9149 4.45657 10.7132 4.30113C10.5115 4.14569 10.3608 3.93363 10.2802 3.69206C10.1997 3.45049 10.1931 3.19039 10.2612 2.94503C10.3292 2.69966 10.469 2.48018 10.6625 2.31465H10.675ZM6.26745 2.45215C6.49847 2.25177 6.79414 2.14167 7.09995 2.14215H7.19245C7.44623 2.1599 7.689 2.25272 7.88988 2.40881C8.09077 2.56489 8.24069 2.7772 8.32059 3.01873C8.4005 3.26025 8.40676 3.52008 8.33859 3.76518C8.27043 4.01027 8.13091 4.22956 7.93778 4.39515C7.74465 4.56074 7.50664 4.66515 7.25401 4.69511C7.00138 4.72506 6.74555 4.67921 6.51905 4.56338C6.29255 4.44755 6.10562 4.26697 5.98202 4.04461C5.85843 3.82226 5.80375 3.56817 5.82495 3.31465C5.83825 3.14882 5.88418 2.98726 5.96012 2.83924C6.03606 2.69122 6.14051 2.55967 6.26745 2.45215ZM3.23495 6.54715C3.25948 6.22548 3.40433 5.92486 3.64064 5.70523C3.87695 5.48561 4.18735 5.36311 4.50995 5.36215H4.60995C4.94817 5.38835 5.26223 5.54749 5.48338 5.80472C5.70454 6.06195 5.81477 6.39633 5.78995 6.73465C5.77814 6.90261 5.73291 7.06652 5.65693 7.21677C5.58094 7.36702 5.47573 7.50059 5.34745 7.60965C5.1555 7.77531 4.91867 7.88023 4.667 7.9111C4.41533 7.94197 4.16017 7.8974 3.93386 7.78305C3.70756 7.66869 3.52032 7.4897 3.39589 7.26878C3.27146 7.04786 3.21545 6.79495 3.23495 6.54215V6.54715ZM3.84245 12.0247C3.5144 11.9958 3.21003 11.8418 2.99239 11.5947C2.77475 11.3475 2.66053 11.0261 2.67338 10.697C2.68624 10.368 2.82518 10.0564 3.06144 9.82702C3.29769 9.5976 3.61315 9.46785 3.94245 9.46465H4.03995C4.37877 9.49018 4.69356 9.64925 4.91509 9.90688C5.13662 10.1645 5.24673 10.4996 5.2212 10.8384C5.19568 11.1772 5.0366 11.492 4.77897 11.7135C4.52134 11.9351 4.18627 12.0452 3.84745 12.0197L3.84245 12.0247ZM6.54245 15.4247C6.38607 15.5593 6.19945 15.6541 5.9985 15.7011C5.79754 15.748 5.58822 15.7457 5.38837 15.6943C5.18851 15.6429 5.00405 15.5439 4.85071 15.4058C4.69737 15.2677 4.57968 15.0946 4.5077 14.9012C4.43571 14.7078 4.41155 14.4998 4.43728 14.2951C4.463 14.0903 4.53785 13.8948 4.65545 13.7252C4.77304 13.5557 4.9299 13.417 5.11264 13.3212C5.29538 13.2253 5.49859 13.175 5.70495 13.1747H5.80495C6.0574 13.1944 6.29836 13.2884 6.49747 13.4448C6.69657 13.6013 6.84491 13.8132 6.92378 14.0538C7.00265 14.2944 7.00852 14.553 6.94066 14.797C6.8728 15.0409 6.73425 15.2593 6.54245 15.4247ZM10.1925 17.7647C10.036 17.8994 9.84926 17.9942 9.64819 18.0412C9.44713 18.0881 9.23769 18.0857 9.03776 18.0341C8.83783 17.9826 8.65333 17.8834 8.50001 17.7452C8.34669 17.6069 8.22909 17.4336 8.15726 17.24C8.08542 17.0464 8.06148 16.8384 8.08747 16.6335C8.11346 16.4287 8.18861 16.2332 8.30652 16.0637C8.42442 15.8942 8.58157 15.7558 8.76457 15.6602C8.94757 15.5645 9.15098 15.5146 9.35745 15.5147H9.44245C9.61027 15.5273 9.77395 15.5729 9.92412 15.6489C10.0743 15.7249 10.208 15.8297 10.3176 15.9574C10.4272 16.0852 10.5106 16.2332 10.5629 16.3932C10.6152 16.5531 10.6354 16.7219 10.6225 16.8897C10.6122 17.0567 10.5689 17.22 10.4951 17.3702C10.4213 17.5204 10.3184 17.6545 10.1925 17.7647ZM13.5875 20.0647C13.431 20.2008 13.244 20.2969 13.0423 20.3449C12.8405 20.3928 12.6302 20.3912 12.4293 20.34C12.2284 20.2889 12.0428 20.1898 11.8886 20.0513C11.7343 19.9127 11.616 19.7388 11.5437 19.5445C11.4713 19.3502 11.4472 19.1413 11.4733 18.9356C11.4994 18.7299 11.575 18.5336 11.6936 18.3636C11.8122 18.1935 11.9703 18.0547 12.1542 17.9591C12.3382 17.8635 12.5426 17.8139 12.75 17.8147H12.85C13.1024 17.8344 13.3434 17.9284 13.5425 18.0848C13.7416 18.2413 13.8899 18.4532 13.9688 18.6938C14.0476 18.9344 14.0535 19.193 13.9857 19.437C13.9178 19.6809 13.7792 19.8993 13.5875 20.0647ZM17.135 22.1172C17.0077 22.2271 16.86 22.3108 16.7003 22.3636C16.5406 22.4163 16.3721 22.437 16.2044 22.4245C16.0367 22.4119 15.8731 22.3664 15.7231 22.2905C15.573 22.2146 15.4394 22.1098 15.33 21.9822C15.1693 21.7965 15.0655 21.5686 15.0308 21.3256C14.9961 21.0826 15.032 20.8347 15.1342 20.6116C15.2365 20.3884 15.4007 20.1993 15.6074 20.0669C15.8141 19.9345 16.0545 19.8643 16.3 19.8647H16.3975C16.6516 19.881 16.895 19.9727 17.0967 20.1282C17.2984 20.2836 17.4492 20.4957 17.5297 20.7372C17.6102 20.9788 17.6168 21.2389 17.5488 21.4843C17.4807 21.7296 17.3409 21.9491 17.1475 22.1147L17.135 22.1172ZM18.525 20.6497C18.4457 20.2793 18.2736 19.9352 18.025 19.6497C17.661 19.2268 17.1547 18.9521 16.6019 18.8774C16.049 18.8028 15.488 18.9334 15.025 19.2447C15.0543 18.8316 14.9707 18.4184 14.7831 18.0492C14.5955 17.68 14.3111 17.3689 13.9602 17.149C13.6093 16.9291 13.2052 16.8088 12.7912 16.801C12.3772 16.7932 11.9689 16.8982 11.61 17.1047C11.6176 17.0591 11.6226 17.0132 11.625 16.9672C11.6593 16.523 11.5626 16.0785 11.3468 15.6888C11.1311 15.2991 10.8058 14.9811 10.4112 14.7744C10.0166 14.5677 9.57005 14.4812 9.1268 14.5257C8.68356 14.5701 8.26309 14.7436 7.91745 15.0247C7.95063 14.8934 7.97238 14.7596 7.98245 14.6247C8.02794 14.0213 7.83204 13.4247 7.43779 12.9657C7.04355 12.5068 6.48322 12.2232 5.87995 12.1772C5.82662 12.1772 5.77412 12.1772 5.72245 12.1772C5.92134 11.9274 6.0656 11.6386 6.14593 11.3296C6.22625 11.0206 6.24085 10.6982 6.18878 10.3832C6.13671 10.0681 6.01913 9.76756 5.84364 9.50082C5.66814 9.23409 5.43864 9.00715 5.16995 8.83465C5.47578 8.74487 5.7588 8.59057 5.99995 8.38215C6.38488 8.05232 6.64892 7.60362 6.75034 7.10695C6.85175 6.61029 6.78476 6.09399 6.55995 5.63965C6.68174 5.66772 6.80539 5.68694 6.92995 5.69715H7.10495C7.62027 5.69531 8.11987 5.51951 8.52279 5.19826C8.92572 4.87701 9.20837 4.42911 9.32495 3.92715C9.41515 4.23408 9.57033 4.518 9.77995 4.75965C9.97248 4.99124 10.2095 5.18182 10.4771 5.3201C10.7446 5.45837 11.0372 5.54154 11.3375 5.56465H11.5125C11.9231 5.56244 12.3256 5.44959 12.6775 5.23798C13.0295 5.02637 13.3179 4.72382 13.5125 4.36215C13.5453 4.91306 13.7767 5.43341 14.1637 5.82686C14.5507 6.22031 15.0672 6.46021 15.6175 6.50215H15.7925C16.1226 6.50313 16.4489 6.43054 16.7475 6.28965V6.38715C16.702 6.99046 16.8979 7.58715 17.2921 8.04608C17.6864 8.50502 18.2467 8.78865 18.85 8.83465H19.025H19.04C18.8583 9.15384 18.7563 9.51215 18.7427 9.87918C18.7291 10.2462 18.8042 10.6111 18.9618 10.9429C19.1193 11.2746 19.3546 11.5635 19.6476 11.7849C19.9406 12.0063 20.2828 12.1537 20.645 12.2147C20.5384 12.2798 20.4372 12.3533 20.3425 12.4347C20.0418 12.6927 19.8136 13.0247 19.6804 13.3978C19.5471 13.771 19.5134 14.1724 19.5825 14.5625C19.6517 14.9527 19.8213 15.3181 20.0747 15.6227C20.3281 15.9273 20.6564 16.1606 21.0275 16.2997C20.6053 16.6643 20.3317 17.1711 20.2584 17.7241C20.1851 18.2771 20.3173 18.8377 20.63 19.2997C20.2321 19.2808 19.84 19.4001 19.52 19.6372L19.065 19.9722C18.8326 20.1457 18.6471 20.3742 18.525 20.6372V20.6497Z" fill="#03AA77"/>
</g>
<defs>
<clipPath id="clip0_122_651">
<rect width="32" height="32" fill="white"/>
</clipPath>
</defs>
</svg>
