<svg width="33" height="32" viewBox="0 0 33 32" fill="none" xmlns="http://www.w3.org/2000/svg">
<g clip-path="url(#clip0_0_551)">
<g clip-path="url(#clip1_0_551)">
<path d="M23.4458 24.8064V23.8248C23.4458 22.2613 22.5745 20.8556 21.1723 20.1562L18.5105 18.829V13.8714C18.5105 12.5645 17.9013 11.3678 16.882 10.6017C16.9351 10.3129 17.1123 10.07 17.3426 9.99359C19.0254 9.43512 20.1555 7.871 20.1555 6.10131C20.1555 3.56627 17.8844 1.64581 15.358 2.05553C13.4043 2.37206 11.9302 4.18725 11.9302 6.27692V9.04957C9.88018 11.2129 8.64022 14.144 8.64022 17.3041V21.9374C8.64022 23.1653 8.98359 24.3405 9.62449 25.3543C8.08755 25.9489 6.99521 27.4397 6.99521 29.1799V30.0002H22.623C23.9836 30.0002 25.0908 28.896 25.0908 27.5393C25.0913 26.9777 24.9384 26.4266 24.6486 25.9451C24.3588 25.4636 23.943 25.0699 23.4458 24.8064ZM20.5959 21.7105C21.3433 22.153 21.8005 22.9476 21.8005 23.8248V24.2136L19.9373 23.594L20.5959 21.7105ZM13.5755 6.27692C13.5755 4.98301 14.4554 3.86405 15.6223 3.67477C17.2007 3.41845 18.5105 4.62989 18.5105 6.10131C18.5111 6.61811 18.3484 7.12195 18.0456 7.54126C17.7427 7.96057 17.315 8.27402 16.8233 8.43707C16.174 8.65243 15.6694 9.15403 15.4113 9.79124L13.5755 8.87567V6.27692ZM10.2852 17.3041C10.2852 14.7274 11.2209 12.2936 12.9312 10.389L15.5013 11.6703C16.3429 12.0896 16.8655 12.9336 16.8655 13.8715V19.8428L19.1143 20.9646L18.3767 23.0756L15.2204 22.026V14.3047H13.5754V23.2085L16.067 24.0369C14.9699 25.2516 13.2331 25.7405 11.6139 25.2025L11.5618 25.185C10.7376 24.2983 10.2852 23.1531 10.2852 21.9373V17.3041ZM22.623 28.3596H8.78114C9.1074 27.4414 9.96566 26.7725 10.9844 26.7222C11.0574 26.7405 11.8289 27.0607 12.9537 27.0607C14.8294 27.0607 16.6209 26.1573 17.7264 24.5883L22.4476 26.1577C22.7384 26.2542 22.9914 26.4396 23.1706 26.6876C23.3498 26.9356 23.4461 27.2336 23.4458 27.5393C23.4458 27.9915 23.0768 28.3596 22.6231 28.3596H22.623Z" fill="#8789A3"/>
</g>
</g>
<defs>
<clipPath id="clip0_0_551">
<rect width="32.0856" height="32" fill="white"/>
</clipPath>
<clipPath id="clip1_0_551">
<rect width="28.0749" height="28" fill="white" transform="translate(2.00534 2)"/>
</clipPath>
</defs>
</svg>
