<svg width="33" height="32" viewBox="0 0 33 32" fill="none" xmlns="http://www.w3.org/2000/svg">
<g clip-path="url(#clip0_0_521)">
<path d="M15.8048 3.93231C16.2977 3.92033 16.5738 4.49587 16.256 4.87274C15.9706 5.2222 15.8149 5.65766 15.8146 6.10907C15.8147 7.19636 16.6868 8.07098 17.7736 8.07098C18.2252 8.07046 18.6637 7.9106 19.0138 7.62372C19.2212 7.44688 19.5005 7.45616 19.6964 7.59052C19.9008 7.73103 20.0074 7.99896 19.9025 8.31024L19.9015 8.30927C19.4995 9.78877 18.1854 10.8257 16.6583 10.8913V11.4206C17.1095 12.105 17.8337 12.6877 18.7003 13.2536C19.1396 13.5405 19.6116 13.8215 20.0978 14.1081C20.5831 14.3942 21.0832 14.6861 21.5743 14.9948C23.5988 16.2672 25.4796 17.8796 25.5167 20.8727C25.5341 22.2803 25.2308 24.1399 23.8781 25.7868H24.1017C24.8784 25.7869 25.5187 26.4283 25.5187 27.2048V28.8884L25.507 29.0036C25.4542 29.2655 25.223 29.4613 24.9454 29.4606V29.4616H7.22473C6.90902 29.4603 6.65445 29.204 6.6554 28.8884V27.2048C6.6554 26.4287 7.29215 25.7868 8.06946 25.7868H22.2384C23.7655 24.5812 24.3394 22.8372 24.3732 20.8727C24.4137 18.5043 22.8724 17.2003 20.965 15.9626C20.5005 15.6612 20.0337 15.3886 19.5743 15.1237C19.1157 14.8592 18.6619 14.6018 18.2306 14.3337C17.4213 13.8307 16.6787 13.2817 16.0851 12.5573C15.4884 13.2844 14.7202 13.8589 13.8976 14.3747C13.4586 14.65 13.0019 14.9109 12.548 15.1706C12.0932 15.4308 11.6411 15.6905 11.2052 15.9645C9.45722 17.0632 7.8292 18.3756 7.79895 20.8766C7.77917 22.5093 8.23745 23.658 8.72375 24.446L8.78528 24.5641C8.83203 24.6825 8.83566 24.8023 8.80383 24.9128C8.7624 25.0564 8.66366 25.1725 8.54504 25.2458C8.42648 25.3189 8.27881 25.355 8.13196 25.3278C7.98201 25.3 7.84633 25.2079 7.75305 25.0495V25.0505C7.16395 24.0972 6.64243 22.7235 6.6554 20.8737C6.67508 18.0555 8.39241 16.3438 10.5997 14.9938C11.5962 14.3844 12.5952 13.8429 13.4777 13.2624C14.342 12.6938 15.0636 12.105 15.5148 11.4196V10.7487C14.056 10.3182 12.9826 8.97249 12.9825 7.37567C12.9827 6.03212 13.8667 4.31654 15.7794 3.93524L15.7921 3.93231H15.8048ZM8.06946 26.9304C7.91324 26.9304 7.79895 27.0447 7.79895 27.2048V28.3181H24.3751V27.2048C24.3751 27.0463 24.2593 26.9305 24.1017 26.9304H8.06946ZM14.6818 5.86395C14.3351 6.27804 14.1277 6.80515 14.1271 7.37665C14.1274 8.6962 15.1888 9.75458 16.5089 9.75458C17.0791 9.7538 17.6041 9.54671 18.0177 9.20184C17.9969 9.20363 17.9761 9.20733 17.9552 9.20868L17.7736 9.21454C16.0647 9.21454 14.6702 7.81756 14.67 6.10907C14.6701 6.02691 14.6749 5.94499 14.6818 5.86395Z" fill="#8789A3" stroke="#8789A3" stroke-width="0.3"/>
</g>
<defs>
<clipPath id="clip0_0_521">
<rect width="32.0856" height="32" fill="white"/>
</clipPath>
</defs>
</svg>
